<svg xmlns="http://www.w3.org/2000/svg" xmlns:xlink="http://www.w3.org/1999/xlink" width="46" zoomAndPan="magnify" viewBox="0 0 34.5 34.5" height="46" preserveAspectRatio="xMidYMid meet" version="1.0"><defs><g/><clipPath id="58c14979b4"><path d="M 0 0 L 34.007812 0 L 34.007812 34.007812 L 0 34.007812 Z M 0 0 " clip-rule="nonzero"/></clipPath></defs><g clip-path="url(#58c14979b4)"><path fill="#ffffff" d="M 0 0 L 34.5 0 L 34.5 42 L 0 42 Z M 0 0 " fill-opacity="1" fill-rule="nonzero"/><path fill="#ffffff" d="M 0 0 L 34.5 0 L 34.5 34.5 L 0 34.5 Z M 0 0 " fill-opacity="1" fill-rule="nonzero"/><path fill="#000000" d="M 0 0 L 34.5 0 L 34.5 34.5 L 0 34.5 Z M 0 0 " fill-opacity="1" fill-rule="nonzero"/></g><g fill="#ffffff" fill-opacity="1"><g transform="translate(7.067657, 25.425372)"><g><path d="M 0.140625 -2.347656 C 0.640625 -2.277344 1.019531 -2.394531 1.304688 -2.773438 C 1.445312 -2.9375 1.515625 -3.222656 1.515625 -3.625 L 1.515625 -17.421875 L 4.078125 -17.421875 L 4.078125 -3.222656 C 4.078125 -2.277344 3.839844 -1.398438 3.246094 -0.757812 C 2.65625 -0.117188 1.660156 0.261719 0.140625 0.164062 Z M 0.140625 -2.347656 "/></g></g></g><g fill="#ffffff" fill-opacity="1"><g transform="translate(15.79044, 25.425372)"><g><path d="M 5.191406 0 L 3.554688 -10.949219 L 3.460938 -11.6875 L 3.320312 -11.6875 L 3.320312 0 L 0.949219 0 L 0.949219 -17.421875 L 4.078125 -17.421875 L 5.59375 -9.457031 L 5.710938 -8.53125 L 5.761719 -8.53125 L 5.878906 -9.457031 L 7.394531 -17.421875 L 10.523438 -17.421875 L 10.523438 0 L 8.152344 0 L 8.152344 -11.6875 L 8.011719 -11.6875 L 7.917969 -10.949219 L 6.28125 0 Z M 5.191406 0 "/></g></g></g></svg>